<svg id="disinfectant" enable-background="new 0 0 300 300" height="48" viewBox="0 0 300 300" width="48" xmlns="http://www.w3.org/2000/svg"><g><path d="m203.948 50c0-2.209-1.789-4-4-4h-12v-4c0-2.209-1.789-4-4-4h-52c-.832 0-1.648.26-2.324.744l-28 20c-1.051.752-1.676 1.965-1.676 3.256v16c0 2.209 1.789 4 4 4h16v4.737c-4.646 1.656-8 6.055-8 11.263 0 1.46.301 2.843.78 4.138-7.152.7-12.78 6.676-12.78 14.008v145.854c0 2.209 1.789 4 4 4h92c2.211 0 4-1.791 4-4v-72c0-18.498-14.023-33.783-32-35.779v-38.074c0-7.332-5.628-13.308-12.78-14.008.48-1.295.78-2.678.78-4.138 0-4.207-2.185-7.9-5.47-10.043l3.706-4.94c3.303 9.497 11.187 23.942 29.107 26.928.223.037.441.055.66.055 1.922 0 3.617-1.387 3.941-3.342.363-2.18-1.109-4.24-3.289-4.604-15.473-2.579-21.51-16.63-23.648-24.055h22.992c2.211 0 4-1.791 4-4v-4h12c2.211 0 4-1.791 4-4v-16zm-80 44h20c2.207 0 4 1.795 4 4s-1.793 4-4 4h-20c-2.207 0-4-1.795-4-4s1.793-4 4-4zm68 96v68h-84v-112h52v12c0 2.209 1.789 4 4 4 15.437 0 28 12.561 28 28zm-32-73.854v21.854h-52v-21.854c0-3.389 2.758-6.146 6.148-6.146h39.704c3.39 0 6.148 2.758 6.148 6.146zm20-46.146h-24c-.088 0-.162.053-.249.059-.108.007-.208-.034-.317-.018-.284.041-.519.181-.778.276-.188.069-.378.101-.554.197-.51.278-.963.635-1.305 1.092l-10.799 14.394h-13.998v-8c0-2.209-1.789-4-4-4h-16v-9.941l25.281-18.059h46.719zm16-8h-8v-8h8z"/><path d="m126.413 67.096c.785 1.047 1.988 1.6 3.203 1.6.836 0 1.676-.26 2.398-.801 5.355-4.016 10.719-6.008 15.855-5.895 2.184-.012 4.035-1.711 4.078-3.92s-1.711-4.035-3.922-4.08c-7.047-.107-14 2.383-20.816 7.496-1.765 1.326-2.12 3.832-.796 5.6z"/><path d="m163.948 190c0-2.209-1.789-4-4-4h-20c-2.211 0-4 1.791-4 4v12h-12c-2.211 0-4 1.791-4 4v20c0 2.209 1.789 4 4 4h12v12c0 2.209 1.789 4 4 4h20c2.211 0 4-1.791 4-4v-12h12c2.211 0 4-1.791 4-4v-20c0-2.209-1.789-4-4-4h-12zm8 20v12h-12c-2.211 0-4 1.791-4 4v12h-12v-12c0-2.209-1.789-4-4-4h-12v-12h12c2.211 0 4-1.791 4-4v-12h12v12c0 2.209 1.789 4 4 4z"/><circle cx="219.948" cy="58" r="4"/><circle cx="251.948" cy="58" r="4"/><circle cx="251.948" cy="78" r="4"/><circle cx="251.948" cy="38" r="4"/><circle cx="235.948" cy="50" r="4"/><circle cx="235.948" cy="66" r="4"/><path d="m219.948 138v8c0 2.209 1.789 4 4 4s4-1.791 4-4v-8c0-2.209-1.789-4-4-4s-4 1.791-4 4z"/><path d="m223.948 158c-2.211 0-4 1.791-4 4v8c0 2.209 1.789 4 4 4s4-1.791 4-4v-8c0-2.209-1.789-4-4-4z"/><path d="m215.948 150h-8c-2.211 0-4 1.791-4 4s1.789 4 4 4h8c2.211 0 4-1.791 4-4s-1.789-4-4-4z"/><path d="m239.948 150h-8c-2.211 0-4 1.791-4 4s1.789 4 4 4h8c2.211 0 4-1.791 4-4s-1.789-4-4-4z"/><path d="m44 148.391c-2.362 0-4.276 1.915-4.276 4.277s1.914 4.276 4.276 4.276 4.276-1.915 4.276-4.276c0-2.362-1.914-4.277-4.276-4.277z"/><path d="m256 220.391c-2.362 0-4.276 1.915-4.276 4.277s1.914 4.276 4.276 4.276 4.276-1.915 4.276-4.276c0-2.362-1.914-4.277-4.276-4.277z"/><path d="m53.948 54c-7.719 0-14 6.281-14 14s6.281 14 14 14 14-6.281 14-14-6.281-14-14-14zm0 20c-3.309 0-6-2.691-6-6s2.691-6 6-6 6 2.691 6 6-2.691 6-6 6z"/></g></svg>